<svg width="109" height="134" viewBox="0 0 109 134" fill="none" xmlns="http://www.w3.org/2000/svg">
<path d="M15.0289 1.21179L43.032 7.86414H71.0351L97.9181 1.21179L107.027 38.5673L97.9181 99.9735L73.2754 132.212H39.6716L10.5484 99.9735L1.02734 42.1493L15.0289 1.21179Z" fill="#6F9B00" fill-opacity="0.3"/>
<path d="M43.032 7.86414L15.0289 1.21179L1.02734 42.1493M43.032 7.86414H71.0351M43.032 7.86414L23.4298 38.5673M71.0351 7.86414L97.9181 1.21179L107.027 38.5673M71.0351 7.86414L87.837 38.5673M107.027 38.5673L97.9181 99.9735M107.027 38.5673L93.9977 51.3602M97.9181 99.9735L73.2754 132.212M97.9181 99.9735L73.2754 82.5751M73.2754 132.212H39.6716M73.2754 132.212L74.9061 102.439L73.2754 82.5751M39.6716 132.212L10.5484 99.9735M39.6716 132.212L29.9364 104.067L35.7512 84.5754M10.5484 99.9735L1.02734 42.1493M10.5484 99.9735L35.7512 84.5754M1.02734 42.1493L23.4298 38.5673M1.02734 42.1493L15.0289 51.3602M23.4298 38.5673L43.032 47.2665M23.4298 38.5673L15.0289 51.3602M43.032 47.2665H60.954M43.032 47.2665L45.997 73.8759L35.7512 84.5754M60.954 47.2665L87.837 38.5673M60.954 47.2665V73.8759L73.2754 82.5751M87.837 38.5673L93.9977 51.3602M93.9977 51.3602L82.7964 59.036L73.2754 82.5751M15.0289 51.3602L23.4298 59.036L35.7512 84.5754" stroke="#31D126" stroke-width="2"/>
</svg>
